<?xml version="1.0" encoding="UTF-8" standalone="no"?>
<svg
   width="800px"
   height="800px"
   viewBox="0 0 24 24"
   fill="none"
   version="1.1"
   id="svg1"
   sodipodi:docname="audio-volume-medium.svg"
   inkscape:version="1.3.2 (091e20ef0f, 2023-11-25, custom)"
   xmlns:inkscape="http://www.inkscape.org/namespaces/inkscape"
   xmlns:sodipodi="http://sodipodi.sourceforge.net/DTD/sodipodi-0.dtd"
   xmlns="http://www.w3.org/2000/svg"
   xmlns:svg="http://www.w3.org/2000/svg">
  <defs
     id="defs1" />
  <sodipodi:namedview
     id="namedview1"
     pagecolor="#505050"
     bordercolor="#eeeeee"
     borderopacity="1"
     inkscape:showpageshadow="0"
     inkscape:pageopacity="0"
     inkscape:pagecheckerboard="0"
     inkscape:deskcolor="#505050"
     inkscape:zoom="0.77625"
     inkscape:cx="400"
     inkscape:cy="400.64412"
     inkscape:window-width="1920"
     inkscape:window-height="1060"
     inkscape:window-x="0"
     inkscape:window-y="20"
     inkscape:window-maximized="1"
     inkscape:current-layer="svg1" />
  <path
     d="m 16.801724,9.6000108 c 0.50216,0.6685282 0.79968,1.4995282 0.79968,2.4000082 0,0.90048 -0.29752,1.73144 -0.79968,2.4 M 7.6817237,9.6000108 h 0.72096 c 0.440744,0 0.661112,0 0.86532,-0.054944 0.180944,-0.04868 0.35192,-0.12876 0.505152,-0.2366 0.172944,-0.121704 0.3140163,-0.291 0.5961763,-0.629584 l 2.100712,-2.52088 c 0.34856,-0.418256 0.5228,-0.627384 0.67504,-0.649152 0.13184,-0.018848 0.2644,0.029152 0.3536,0.128024 0.10304,0.114176 0.10304,0.3864 0.10304,0.930848 V 17.432259 c 0,0.54448 0,0.81672 -0.10304,0.93088 -0.0892,0.09888 -0.22176,0.14688 -0.3536,0.128 -0.15216,-0.02176 -0.32648,-0.23088 -0.67504,-0.64912 l -2.100712,-2.52088 c -0.28216,-0.33856 -0.4232323,-0.50792 -0.5961763,-0.6296 -0.153232,-0.10784 -0.324208,-0.18792 -0.505152,-0.23656 -0.204208,-0.05496 -0.424576,-0.05496 -0.86532,-0.05496 h -0.72096 c -0.44804,0 -0.672064,0 -0.843192,-0.0872 -0.150528,-0.07672 -0.272912,-0.19912 -0.349616,-0.3496 -0.087192,-0.17112 -0.087192,-0.3952 -0.087192,-0.8432 v -2.24 c 0,-0.44808 0,-0.672072 0.087192,-0.843208 0.076704,-0.1505282 0.199088,-0.2729122 0.349616,-0.3496082 0.171128,-0.087192 0.395152,-0.087192 0.843192,-0.087192 z"
     stroke="#cba6f7"
     stroke-width="1.6"
     stroke-linecap="round"
     stroke-linejoin="round"
     id="path1" />
</svg>
